<svg width="1600" height="500" viewBox="0 0 1600 500" fill="none" xmlns="http://www.w3.org/2000/svg">
<path fill-rule="evenodd" clip-rule="evenodd" d="M189.647 315.21L100.127 315.493L84.9833 357.658C84.4524 359.136 83.0511 360.122 81.4812 360.122H55.7006C54.4893 360.122 53.3539 359.532 52.6569 358.542C51.9599 357.551 51.7887 356.283 52.198 355.143L127.449 145.518C127.98 144.04 129.381 143.054 130.951 143.054H158.59C160.161 143.054 161.562 144.04 162.092 145.518L237.344 355.143C237.753 356.283 237.581 357.551 236.885 358.542C236.188 359.532 235.052 360.122 233.841 360.122H208.293C206.72 360.122 205.317 359.133 204.788 357.651C204.788 357.651 192.502 323.213 190.045 316.326L189.647 315.21ZM189.613 315.098C189.613 315.111 189.616 315.124 189.62 315.136C189.62 315.136 189.726 315.21 189.726 315.21C189.726 315.21 189.734 315.184 189.745 315.152C189.732 315.116 189.726 315.098 189.726 315.098L189.613 315.098ZM176.536 278.433L144.892 190.159L113.248 278.69C116.397 278.677 164.945 278.48 174.914 278.44L176.536 278.433Z" fill="#082A41"/>
<path fill-rule="evenodd" clip-rule="evenodd" d="M282.244 360.008H258.089C256.096 360.008 254.481 358.392 254.481 356.399V146.774C254.481 144.781 256.096 143.165 258.089 143.165H282.244C283.458 143.165 284.591 143.776 285.258 144.79L386.867 299.135V146.774C386.867 144.781 388.482 143.165 390.476 143.165H414.63C416.623 143.165 418.239 144.781 418.239 146.774V356.399C418.239 358.392 416.623 360.008 414.63 360.008H390.476C389.261 360.008 388.129 359.398 387.461 358.384L285.853 204.038V356.399C285.853 358.392 284.237 360.008 282.244 360.008Z" fill="#082A41"/>
<path fill-rule="evenodd" clip-rule="evenodd" d="M508.992 274.125L435.857 148.592C435.207 147.476 435.203 146.097 435.847 144.977C436.49 143.858 437.684 143.167 438.975 143.167H467.775C469.052 143.167 470.234 143.842 470.883 144.942L524.671 236.092L578.237 144.947C578.885 143.844 580.069 143.167 581.348 143.167H610.148C611.44 143.167 612.633 143.857 613.277 144.977C613.921 146.097 613.917 147.475 613.267 148.591L540.364 273.824V356.401C540.364 358.394 538.748 360.01 536.755 360.01H512.601C510.608 360.01 508.992 358.394 508.992 356.401V274.125Z" fill="#082A41"/>
<path fill-rule="evenodd" clip-rule="evenodd" d="M1049.8 360.008H1025.64C1023.65 360.008 1022.03 358.392 1022.03 356.399V146.774C1022.03 144.781 1023.65 143.165 1025.64 143.165H1110.18C1130.95 143.165 1145.95 148.504 1155.34 158.703C1164.64 168.805 1169.53 185.047 1169.53 207.565C1169.53 233.321 1162.9 251.147 1150.22 261.295C1161.99 269.831 1168.14 284.879 1168.14 306.688V356.399C1168.14 358.392 1166.53 360.008 1164.53 360.008H1140.36C1138.37 360.008 1136.75 358.392 1136.75 356.399V308.102C1136.75 298.341 1134.8 291.211 1130.4 286.863C1125.99 282.515 1118.97 280.566 1109.47 280.566H1053.41V356.399C1053.41 358.392 1051.79 360.008 1049.8 360.008ZM1053.41 243.785H1108.79C1119.15 243.785 1126.76 241.486 1131.46 236.409C1136.24 231.241 1138.39 222.881 1138.39 211.458C1138.39 200.248 1136.25 192.043 1131.48 186.981C1126.78 181.988 1119.16 179.73 1108.79 179.73H1053.41V243.785Z" fill="#082A41"/>
<path fill-rule="evenodd" clip-rule="evenodd" d="M1197.63 143.162H1221.79C1223.78 143.162 1225.39 144.778 1225.39 146.771V268.479C1225.39 290.574 1225.01 329.108 1274.74 329.108C1324.47 329.108 1324.09 290.58 1324.09 268.479V146.771C1324.09 144.778 1325.7 143.162 1327.69 143.162H1351.85C1353.84 143.162 1355.46 144.778 1355.46 146.771V279.009C1355.46 312.635 1344.53 362.631 1274.74 362.631C1204.95 362.631 1194.02 312.639 1194.02 279.009V146.771C1194.02 144.778 1195.64 143.162 1197.63 143.162Z" fill="#082A41"/>
<path fill-rule="evenodd" clip-rule="evenodd" d="M1409.39 360.008H1385.23C1383.24 360.008 1381.63 358.392 1381.63 356.399V146.774C1381.63 144.781 1383.24 143.165 1385.23 143.165H1409.39C1410.6 143.165 1411.74 143.776 1412.4 144.79L1514.01 299.135V146.774C1514.01 144.781 1515.63 143.165 1517.62 143.165H1541.77C1543.77 143.165 1545.38 144.781 1545.38 146.774V356.399C1545.38 358.392 1543.77 360.008 1541.77 360.008H1517.62C1516.41 360.008 1515.27 359.398 1514.61 358.384L1413 204.038V356.399C1413 358.392 1411.38 360.008 1409.39 360.008Z" fill="#082A41"/>
<path d="M975.354 197.437L734.984 47.0078C727.699 42.7528 720.284 40.9322 712.863 44.9447C706.639 48.4021 703.581 56.688 703.581 64.1908V353.166L735.039 333.429V83.8259L946.081 215.855L930.797 225.417L960.623 244.19L975.764 234.672C981.818 230.927 986.253 223.358 986.253 215.855C986.253 208.353 981.434 201.247 975.354 197.437Z" fill="#00BAF5"/>
<path d="M975.823 268.449L747.876 125.804V163.218L945.97 287.17L734.949 419.238V400.123L703.608 419.743V438.825C703.608 446.314 707.249 454.122 713.486 457.554C721.863 462.16 731.974 457.882 734.949 456.043L975.456 305.628C981.406 301.818 986.255 294.089 986.255 286.599C986.255 279.11 981.851 272.194 975.823 268.449Z" fill="#00BAF5"/>
<path d="M877.376 258.758L674.798 385.656V117.508L690.782 127.607V90.0296L674.798 79.77C668.64 76.2471 659.088 75.9339 653.125 79.77C647.162 83.6061 643.379 90.901 643.379 98.3772V405.232C643.379 412.735 643.469 421.114 653.125 425.798C661.723 429.974 671.894 424.519 674.843 422.693L907.365 277.497L877.376 258.758Z" fill="#00BAF5"/>
</svg>
